<?xml version="1.0" encoding="UTF-8" standalone="no"?><!DOCTYPE svg PUBLIC "-//W3C//DTD SVG 1.1//EN" "http://www.w3.org/Graphics/SVG/1.1/DTD/svg11.dtd"><svg width="100%" height="100%" viewBox="0 0 298 91" version="1.1" xmlns="http://www.w3.org/2000/svg" xmlns:xlink="http://www.w3.org/1999/xlink" xml:space="preserve" xmlns:serif="http://www.serif.com/" style="fill-rule:evenodd;clip-rule:evenodd;stroke-linejoin:round;stroke-miterlimit:2;"><g transform="matrix(0.24,0,0,0.24,-18.5571,-23.8901)"><g transform="matrix(83.3333,0,0,83.3333,77.3111,179.759)"><path d="M0.569,-0.7l-0.236,0.377l0,0.323l-0.099,0l0,-0.323l-0.237,-0.377l0.1,0l0.186,0.291l0.186,-0.291l0.1,0Z" style="fill:#181a1b;fill-rule:nonzero;"/></g><g transform="matrix(83.3333,0,0,83.3333,124.561,179.759)"><path d="M0.151,-0.6l-0.09,0l0,-0.1l0.09,0l0,0.1Zm0,0.6l-0.09,0l0,-0.49l0.09,0l0,0.49Z" style="fill:#181a1b;fill-rule:nonzero;"/></g><g transform="matrix(83.3333,0,0,83.3333,142.228,179.759)"><path d="M0.503,0l-0.09,0l0,-0.27c0,-0.053 -0.01,-0.091 -0.03,-0.114c-0.019,-0.024 -0.052,-0.036 -0.098,-0.036c-0.065,0 -0.11,0.021 -0.134,0.064l0,0.356l-0.09,0l0,-0.49l0.07,0l0.01,0.052c0.047,-0.041 0.101,-0.062 0.162,-0.062c0.133,0 0.2,0.077 0.2,0.23l0,0.27Z" style="fill:#181a1b;fill-rule:nonzero;"/></g><g transform="matrix(83.3333,0,0,83.3333,188.811,179.759)"><path d="M0.255,0.25c-0.039,0 -0.072,-0.004 -0.101,-0.012c-0.029,-0.008 -0.053,-0.019 -0.071,-0.032c-0.019,-0.014 -0.034,-0.03 -0.043,-0.048c-0.009,-0.018 -0.014,-0.037 -0.014,-0.056c0,-0.052 0.029,-0.089 0.087,-0.11c-0.033,-0.016 -0.05,-0.037 -0.05,-0.062c0,-0.011 0.005,-0.024 0.014,-0.037c0.009,-0.014 0.023,-0.026 0.044,-0.036c-0.057,-0.041 -0.085,-0.094 -0.085,-0.16c0,-0.028 0.005,-0.054 0.014,-0.078c0.009,-0.024 0.022,-0.045 0.039,-0.062c0.017,-0.018 0.038,-0.032 0.063,-0.042c0.025,-0.01 0.053,-0.015 0.084,-0.015c0.044,0 0.086,0.012 0.125,0.036c0.035,-0.019 0.074,-0.028 0.119,-0.028l0.008,0l-0.011,0.06l-0.023,0c-0.021,0 -0.04,0.002 -0.058,0.007c0.03,0.036 0.045,0.075 0.045,0.117c0,0.026 -0.005,0.051 -0.014,0.074c-0.009,0.023 -0.022,0.044 -0.039,0.062c-0.017,0.018 -0.038,0.032 -0.062,0.043c-0.025,0.011 -0.052,0.016 -0.083,0.016c-0.026,0 -0.049,-0.003 -0.07,-0.009c-0.016,0.009 -0.024,0.019 -0.024,0.03c0,0.006 0.002,0.011 0.006,0.015c0.003,0.005 0.011,0.009 0.022,0.012c0.011,0.003 0.026,0.007 0.046,0.01c0.019,0.004 0.045,0.009 0.078,0.015c0.022,0.004 0.045,0.009 0.068,0.015c0.023,0.006 0.045,0.014 0.064,0.024c0.019,0.01 0.034,0.023 0.047,0.038c0.013,0.016 0.02,0.036 0.021,0.059c0,0.021 -0.006,0.04 -0.017,0.059c-0.011,0.019 -0.027,0.035 -0.048,0.049c-0.021,0.014 -0.047,0.025 -0.078,0.034c-0.031,0.008 -0.065,0.012 -0.103,0.012Zm-0.018,-0.678c-0.037,0 -0.065,0.011 -0.085,0.034c-0.02,0.022 -0.03,0.051 -0.03,0.088c0,0.038 0.011,0.068 0.033,0.091c0.021,0.022 0.049,0.033 0.084,0.033c0.036,0 0.064,-0.012 0.085,-0.036c0.021,-0.024 0.031,-0.054 0.031,-0.091c0,-0.038 -0.011,-0.067 -0.032,-0.088c-0.021,-0.021 -0.05,-0.031 -0.086,-0.031Zm0.042,0.454c-0.011,0 -0.041,-0.004 -0.089,-0.012c-0.023,0.007 -0.041,0.018 -0.056,0.035c-0.015,0.017 -0.022,0.034 -0.022,0.051c0,0.023 0.013,0.043 0.039,0.058c0.026,0.015 0.062,0.022 0.108,0.022c0.048,0 0.085,-0.008 0.112,-0.023c0.026,-0.016 0.039,-0.034 0.039,-0.055c0,-0.035 -0.044,-0.06 -0.131,-0.076Z" style="fill:#181a1b;fill-rule:nonzero;"/></g><g transform="matrix(83.3333,0,0,83.3333,230.311,179.759)"><path d="M0.229,-0.062l-0.013,0.072l-0.029,0c-0.044,0 -0.076,-0.011 -0.097,-0.034c-0.02,-0.022 -0.03,-0.05 -0.03,-0.084l0,-0.642l0.09,0l0,0.59c0,0.021 0.001,0.038 0.003,0.051c0.001,0.013 0.005,0.023 0.01,0.03c0.005,0.007 0.013,0.011 0.023,0.014c0.011,0.002 0.025,0.003 0.043,0.003Z" style="fill:#181a1b;fill-rule:nonzero;"/></g><g transform="matrix(83.3333,0,0,83.3333,249.978,179.759)"><path d="M0.472,-0.062l-0.014,0.072l-0.007,0c-0.02,0 -0.037,-0.001 -0.05,-0.004c-0.013,-0.002 -0.025,-0.006 -0.034,-0.012c-0.009,-0.005 -0.017,-0.013 -0.023,-0.022c-0.007,-0.009 -0.013,-0.021 -0.019,-0.034c-0.041,0.048 -0.091,0.072 -0.15,0.072c-0.046,0 -0.083,-0.013 -0.11,-0.04c-0.027,-0.026 -0.041,-0.06 -0.041,-0.102c0,-0.034 0.009,-0.062 0.028,-0.084c0.018,-0.022 0.041,-0.04 0.07,-0.053c0.028,-0.013 0.059,-0.023 0.094,-0.028c0.035,-0.006 0.068,-0.009 0.101,-0.01c0,-0.044 -0.008,-0.074 -0.025,-0.089c-0.017,-0.016 -0.045,-0.024 -0.082,-0.024c-0.043,0 -0.086,0.015 -0.129,0.044l-0.013,-0.073c0.044,-0.034 0.099,-0.051 0.166,-0.051c0.031,0 0.058,0.004 0.08,0.013c0.022,0.008 0.04,0.021 0.054,0.04c0.013,0.018 0.023,0.042 0.03,0.072c0.006,0.03 0.009,0.067 0.009,0.11l0,0.1c0,0.039 0.003,0.066 0.01,0.081c0.007,0.015 0.022,0.022 0.046,0.022l0.009,0Zm-0.155,-0.066l0,-0.117c-0.072,0.003 -0.123,0.012 -0.154,0.029c-0.031,0.016 -0.047,0.042 -0.047,0.079c0,0.05 0.025,0.075 0.076,0.075c0.024,0 0.047,-0.006 0.07,-0.018c0.022,-0.012 0.04,-0.028 0.055,-0.048Z" style="fill:#181a1b;fill-rule:nonzero;"/></g><g transform="matrix(83.3333,0,0,83.3333,289.978,179.759)"><path d="M0.151,-0.6l-0.09,0l0,-0.1l0.09,0l0,0.1Zm0,0.6l-0.09,0l0,-0.49l0.09,0l0,0.49Z" style="fill:#181a1b;fill-rule:nonzero;"/></g><g transform="matrix(83.3333,0,0,83.3333,326.394,179.759)"><path d="M0.569,-0.7l-0.236,0.377l0,0.323l-0.099,0l0,-0.323l-0.237,-0.377l0.1,0l0.186,0.291l0.186,-0.291l0.1,0Z" style="fill:#181a1b;fill-rule:nonzero;"/></g><g transform="matrix(83.3333,0,0,83.3333,368.061,179.759)"><path d="M0.472,-0.062l-0.014,0.072l-0.007,0c-0.02,0 -0.037,-0.001 -0.05,-0.004c-0.013,-0.002 -0.025,-0.006 -0.034,-0.012c-0.009,-0.005 -0.017,-0.013 -0.023,-0.022c-0.007,-0.009 -0.013,-0.021 -0.019,-0.034c-0.041,0.048 -0.091,0.072 -0.15,0.072c-0.046,0 -0.083,-0.013 -0.11,-0.04c-0.027,-0.026 -0.041,-0.06 -0.041,-0.102c0,-0.034 0.009,-0.062 0.028,-0.084c0.018,-0.022 0.041,-0.04 0.07,-0.053c0.028,-0.013 0.059,-0.023 0.094,-0.028c0.035,-0.006 0.068,-0.009 0.101,-0.01c0,-0.044 -0.008,-0.074 -0.025,-0.089c-0.017,-0.016 -0.045,-0.024 -0.082,-0.024c-0.043,0 -0.086,0.015 -0.129,0.044l-0.013,-0.073c0.044,-0.034 0.099,-0.051 0.166,-0.051c0.031,0 0.058,0.004 0.08,0.013c0.022,0.008 0.04,0.021 0.054,0.04c0.013,0.018 0.023,0.042 0.03,0.072c0.006,0.03 0.009,0.067 0.009,0.11l0,0.1c0,0.039 0.003,0.066 0.01,0.081c0.007,0.015 0.022,0.022 0.046,0.022l0.009,0Zm-0.155,-0.066l0,-0.117c-0.072,0.003 -0.123,0.012 -0.154,0.029c-0.031,0.016 -0.047,0.042 -0.047,0.079c0,0.05 0.025,0.075 0.076,0.075c0.024,0 0.047,-0.006 0.07,-0.018c0.022,-0.012 0.04,-0.028 0.055,-0.048Z" style="fill:#181a1b;fill-rule:nonzero;"/></g><g transform="matrix(83.3333,0,0,83.3333,408.061,179.759)"><path d="M0.503,0l-0.09,0l0,-0.27c0,-0.053 -0.01,-0.091 -0.03,-0.114c-0.019,-0.024 -0.052,-0.036 -0.098,-0.036c-0.065,0 -0.11,0.021 -0.134,0.064l0,0.356l-0.09,0l0,-0.49l0.07,0l0.01,0.052c0.047,-0.041 0.101,-0.062 0.162,-0.062c0.133,0 0.2,0.077 0.2,0.23l0,0.27Z" style="fill:#181a1b;fill-rule:nonzero;"/></g><g transform="matrix(83.3333,0,0,83.3333,454.644,179.759)"><path d="M0.255,0.25c-0.039,0 -0.072,-0.004 -0.101,-0.012c-0.029,-0.008 -0.053,-0.019 -0.071,-0.032c-0.019,-0.014 -0.034,-0.03 -0.043,-0.048c-0.009,-0.018 -0.014,-0.037 -0.014,-0.056c0,-0.052 0.029,-0.089 0.087,-0.11c-0.033,-0.016 -0.05,-0.037 -0.05,-0.062c0,-0.011 0.005,-0.024 0.014,-0.037c0.009,-0.014 0.023,-0.026 0.044,-0.036c-0.057,-0.041 -0.085,-0.094 -0.085,-0.16c0,-0.028 0.005,-0.054 0.014,-0.078c0.009,-0.024 0.022,-0.045 0.039,-0.062c0.017,-0.018 0.038,-0.032 0.063,-0.042c0.025,-0.01 0.053,-0.015 0.084,-0.015c0.044,0 0.086,0.012 0.125,0.036c0.035,-0.019 0.074,-0.028 0.119,-0.028l0.008,0l-0.011,0.06l-0.023,0c-0.021,0 -0.04,0.002 -0.058,0.007c0.03,0.036 0.045,0.075 0.045,0.117c0,0.026 -0.005,0.051 -0.014,0.074c-0.009,0.023 -0.022,0.044 -0.039,0.062c-0.017,0.018 -0.038,0.032 -0.062,0.043c-0.025,0.011 -0.052,0.016 -0.083,0.016c-0.026,0 -0.049,-0.003 -0.07,-0.009c-0.016,0.009 -0.024,0.019 -0.024,0.03c0,0.006 0.002,0.011 0.006,0.015c0.003,0.005 0.011,0.009 0.022,0.012c0.011,0.003 0.026,0.007 0.046,0.01c0.019,0.004 0.045,0.009 0.078,0.015c0.022,0.004 0.045,0.009 0.068,0.015c0.023,0.006 0.045,0.014 0.064,0.024c0.019,0.01 0.034,0.023 0.047,0.038c0.013,0.016 0.02,0.036 0.021,0.059c0,0.021 -0.006,0.04 -0.017,0.059c-0.011,0.019 -0.027,0.035 -0.048,0.049c-0.021,0.014 -0.047,0.025 -0.078,0.034c-0.031,0.008 -0.065,0.012 -0.103,0.012Zm-0.018,-0.678c-0.037,0 -0.065,0.011 -0.085,0.034c-0.02,0.022 -0.03,0.051 -0.03,0.088c0,0.038 0.011,0.068 0.033,0.091c0.021,0.022 0.049,0.033 0.084,0.033c0.036,0 0.064,-0.012 0.085,-0.036c0.021,-0.024 0.031,-0.054 0.031,-0.091c0,-0.038 -0.011,-0.067 -0.032,-0.088c-0.021,-0.021 -0.05,-0.031 -0.086,-0.031Zm0.042,0.454c-0.011,0 -0.041,-0.004 -0.089,-0.012c-0.023,0.007 -0.041,0.018 -0.056,0.035c-0.015,0.017 -0.022,0.034 -0.022,0.051c0,0.023 0.013,0.043 0.039,0.058c0.026,0.015 0.062,0.022 0.108,0.022c0.048,0 0.085,-0.008 0.112,-0.023c0.026,-0.016 0.039,-0.034 0.039,-0.055c0,-0.035 -0.044,-0.06 -0.131,-0.076Z" style="fill:#181a1b;fill-rule:nonzero;"/></g><g transform="matrix(83.3333,0,0,83.3333,77.3111,288.092)"><path d="M0.516,0l-0.436,0l0,-0.7l0.427,0l0,0.086l-0.332,0l0,0.205l0.264,0l0,0.086l-0.264,0l0,0.237l0.341,0l0,0.086Z" style="fill:#181a1b;fill-rule:nonzero;"/></g><g transform="matrix(83.3333,0,0,83.3333,122.728,288.092)"><path d="M0.821,0l-0.09,0l0,-0.288c0,-0.046 -0.009,-0.079 -0.027,-0.1c-0.018,-0.021 -0.047,-0.032 -0.088,-0.032c-0.087,0 -0.13,0.045 -0.13,0.136l0,0.284l-0.09,0l0,-0.27c0,-0.056 -0.01,-0.095 -0.03,-0.117c-0.019,-0.022 -0.048,-0.033 -0.085,-0.033c-0.063,0 -0.106,0.021 -0.13,0.064l0,0.356l-0.09,0l0,-0.49l0.07,0l0.01,0.052c0.027,-0.024 0.051,-0.04 0.073,-0.049c0.022,-0.009 0.047,-0.013 0.074,-0.013c0.075,0 0.13,0.033 0.166,0.098c0.034,-0.065 0.094,-0.098 0.179,-0.098c0.125,0 0.188,0.07 0.188,0.211l0,0.289Z" style="fill:#181a1b;fill-rule:nonzero;"/></g><g transform="matrix(83.3333,0,0,83.3333,195.811,288.092)"><path d="M0.472,-0.062l-0.014,0.072l-0.007,0c-0.02,0 -0.037,-0.001 -0.05,-0.004c-0.013,-0.002 -0.025,-0.006 -0.034,-0.012c-0.009,-0.005 -0.017,-0.013 -0.023,-0.022c-0.007,-0.009 -0.013,-0.021 -0.019,-0.034c-0.041,0.048 -0.091,0.072 -0.15,0.072c-0.046,0 -0.083,-0.013 -0.11,-0.04c-0.027,-0.026 -0.041,-0.06 -0.041,-0.102c0,-0.034 0.009,-0.062 0.028,-0.084c0.018,-0.022 0.041,-0.04 0.07,-0.053c0.028,-0.013 0.059,-0.023 0.094,-0.028c0.035,-0.006 0.068,-0.009 0.101,-0.01c0,-0.044 -0.008,-0.074 -0.025,-0.089c-0.017,-0.016 -0.045,-0.024 -0.082,-0.024c-0.043,0 -0.086,0.015 -0.129,0.044l-0.013,-0.073c0.044,-0.034 0.099,-0.051 0.166,-0.051c0.031,0 0.058,0.004 0.08,0.013c0.022,0.008 0.04,0.021 0.054,0.04c0.013,0.018 0.023,0.042 0.03,0.072c0.006,0.03 0.009,0.067 0.009,0.11l0,0.1c0,0.039 0.003,0.066 0.01,0.081c0.007,0.015 0.022,0.022 0.046,0.022l0.009,0Zm-0.155,-0.066l0,-0.117c-0.072,0.003 -0.123,0.012 -0.154,0.029c-0.031,0.016 -0.047,0.042 -0.047,0.079c0,0.05 0.025,0.075 0.076,0.075c0.024,0 0.047,-0.006 0.07,-0.018c0.022,-0.012 0.04,-0.028 0.055,-0.048Z" style="fill:#181a1b;fill-rule:nonzero;"/></g><g transform="matrix(83.3333,0,0,83.3333,235.811,288.092)"><path d="M0.151,-0.6l-0.09,0l0,-0.1l0.09,0l0,0.1Zm0,0.6l-0.09,0l0,-0.49l0.09,0l0,0.49Z" style="fill:#181a1b;fill-rule:nonzero;"/></g><g transform="matrix(83.3333,0,0,83.3333,253.478,288.092)"><path d="M0.229,-0.062l-0.013,0.072l-0.029,0c-0.044,0 -0.076,-0.011 -0.097,-0.034c-0.02,-0.022 -0.03,-0.05 -0.03,-0.084l0,-0.642l0.09,0l0,0.59c0,0.021 0.001,0.038 0.003,0.051c0.001,0.013 0.005,0.023 0.01,0.03c0.005,0.007 0.013,0.011 0.023,0.014c0.011,0.002 0.025,0.003 0.043,0.003Z" style="fill:#181a1b;fill-rule:nonzero;"/></g><g transform="matrix(83.3333,0,0,83.3333,273.144,288.092)"><path d="M0.147,-0.354l-0.09,0l0,-0.086l0.09,0l0,0.086Zm0,0.354l-0.09,0l0,-0.086l0.09,0l0,0.086Z" style="fill:#181a1b;fill-rule:nonzero;"/></g><g transform="matrix(83.3333,0,0,83.3333,308.894,288.092)"><path d="M0.498,-0.49l-0.3,0.732l-0.1,0l0.113,-0.264l-0.204,-0.468l0.1,0l0.153,0.364l0.138,-0.364l0.1,0Z" style="fill:#181a1b;fill-rule:nonzero;"/></g><g transform="matrix(83.3333,0,0,83.3333,350.978,288.092)"><path d="M0.151,-0.6l-0.09,0l0,-0.1l0.09,0l0,0.1Zm0,0.6l-0.09,0l0,-0.49l0.09,0l0,0.49Z" style="fill:#181a1b;fill-rule:nonzero;"/></g><g transform="matrix(83.3333,0,0,83.3333,368.644,288.092)"><path d="M0.503,0l-0.09,0l0,-0.27c0,-0.053 -0.01,-0.091 -0.03,-0.114c-0.019,-0.024 -0.052,-0.036 -0.098,-0.036c-0.065,0 -0.11,0.021 -0.134,0.064l0,0.356l-0.09,0l0,-0.49l0.07,0l0.01,0.052c0.047,-0.041 0.101,-0.062 0.162,-0.062c0.133,0 0.2,0.077 0.2,0.23l0,0.27Z" style="fill:#181a1b;fill-rule:nonzero;"/></g><g transform="matrix(83.3333,0,0,83.3333,415.228,288.092)"><path d="M0.255,0.25c-0.039,0 -0.072,-0.004 -0.101,-0.012c-0.029,-0.008 -0.053,-0.019 -0.071,-0.032c-0.019,-0.014 -0.034,-0.03 -0.043,-0.048c-0.009,-0.018 -0.014,-0.037 -0.014,-0.056c0,-0.052 0.029,-0.089 0.087,-0.11c-0.033,-0.016 -0.05,-0.037 -0.05,-0.062c0,-0.011 0.005,-0.024 0.014,-0.037c0.009,-0.014 0.023,-0.026 0.044,-0.036c-0.057,-0.041 -0.085,-0.094 -0.085,-0.16c0,-0.028 0.005,-0.054 0.014,-0.078c0.009,-0.024 0.022,-0.045 0.039,-0.062c0.017,-0.018 0.038,-0.032 0.063,-0.042c0.025,-0.01 0.053,-0.015 0.084,-0.015c0.044,0 0.086,0.012 0.125,0.036c0.035,-0.019 0.074,-0.028 0.119,-0.028l0.008,0l-0.011,0.06l-0.023,0c-0.021,0 -0.04,0.002 -0.058,0.007c0.03,0.036 0.045,0.075 0.045,0.117c0,0.026 -0.005,0.051 -0.014,0.074c-0.009,0.023 -0.022,0.044 -0.039,0.062c-0.017,0.018 -0.038,0.032 -0.062,0.043c-0.025,0.011 -0.052,0.016 -0.083,0.016c-0.026,0 -0.049,-0.003 -0.07,-0.009c-0.016,0.009 -0.024,0.019 -0.024,0.03c0,0.006 0.002,0.011 0.006,0.015c0.003,0.005 0.011,0.009 0.022,0.012c0.011,0.003 0.026,0.007 0.046,0.01c0.019,0.004 0.045,0.009 0.078,0.015c0.022,0.004 0.045,0.009 0.068,0.015c0.023,0.006 0.045,0.014 0.064,0.024c0.019,0.01 0.034,0.023 0.047,0.038c0.013,0.016 0.02,0.036 0.021,0.059c0,0.021 -0.006,0.04 -0.017,0.059c-0.011,0.019 -0.027,0.035 -0.048,0.049c-0.021,0.014 -0.047,0.025 -0.078,0.034c-0.031,0.008 -0.065,0.012 -0.103,0.012Zm-0.018,-0.678c-0.037,0 -0.065,0.011 -0.085,0.034c-0.02,0.022 -0.03,0.051 -0.03,0.088c0,0.038 0.011,0.068 0.033,0.091c0.021,0.022 0.049,0.033 0.084,0.033c0.036,0 0.064,-0.012 0.085,-0.036c0.021,-0.024 0.031,-0.054 0.031,-0.091c0,-0.038 -0.011,-0.067 -0.032,-0.088c-0.021,-0.021 -0.05,-0.031 -0.086,-0.031Zm0.042,0.454c-0.011,0 -0.041,-0.004 -0.089,-0.012c-0.023,0.007 -0.041,0.018 -0.056,0.035c-0.015,0.017 -0.022,0.034 -0.022,0.051c0,0.023 0.013,0.043 0.039,0.058c0.026,0.015 0.062,0.022 0.108,0.022c0.048,0 0.085,-0.008 0.112,-0.023c0.026,-0.016 0.039,-0.034 0.039,-0.055c0,-0.035 -0.044,-0.06 -0.131,-0.076Z" style="fill:#181a1b;fill-rule:nonzero;"/></g><g transform="matrix(83.3333,0,0,83.3333,456.728,288.092)"><path d="M0.229,-0.062l-0.013,0.072l-0.029,0c-0.044,0 -0.076,-0.011 -0.097,-0.034c-0.02,-0.022 -0.03,-0.05 -0.03,-0.084l0,-0.642l0.09,0l0,0.59c0,0.021 0.001,0.038 0.003,0.051c0.001,0.013 0.005,0.023 0.01,0.03c0.005,0.007 0.013,0.011 0.023,0.014c0.011,0.002 0.025,0.003 0.043,0.003Z" style="fill:#181a1b;fill-rule:nonzero;"/></g><g transform="matrix(83.3333,0,0,83.3333,476.394,288.092)"><path d="M0.472,-0.062l-0.014,0.072l-0.007,0c-0.02,0 -0.037,-0.001 -0.05,-0.004c-0.013,-0.002 -0.025,-0.006 -0.034,-0.012c-0.009,-0.005 -0.017,-0.013 -0.023,-0.022c-0.007,-0.009 -0.013,-0.021 -0.019,-0.034c-0.041,0.048 -0.091,0.072 -0.15,0.072c-0.046,0 -0.083,-0.013 -0.11,-0.04c-0.027,-0.026 -0.041,-0.06 -0.041,-0.102c0,-0.034 0.009,-0.062 0.028,-0.084c0.018,-0.022 0.041,-0.04 0.07,-0.053c0.028,-0.013 0.059,-0.023 0.094,-0.028c0.035,-0.006 0.068,-0.009 0.101,-0.01c0,-0.044 -0.008,-0.074 -0.025,-0.089c-0.017,-0.016 -0.045,-0.024 -0.082,-0.024c-0.043,0 -0.086,0.015 -0.129,0.044l-0.013,-0.073c0.044,-0.034 0.099,-0.051 0.166,-0.051c0.031,0 0.058,0.004 0.08,0.013c0.022,0.008 0.04,0.021 0.054,0.04c0.013,0.018 0.023,0.042 0.03,0.072c0.006,0.03 0.009,0.067 0.009,0.11l0,0.1c0,0.039 0.003,0.066 0.01,0.081c0.007,0.015 0.022,0.022 0.046,0.022l0.009,0Zm-0.155,-0.066l0,-0.117c-0.072,0.003 -0.123,0.012 -0.154,0.029c-0.031,0.016 -0.047,0.042 -0.047,0.079c0,0.05 0.025,0.075 0.076,0.075c0.024,0 0.047,-0.006 0.07,-0.018c0.022,-0.012 0.04,-0.028 0.055,-0.048Z" style="fill:#181a1b;fill-rule:nonzero;"/></g><g transform="matrix(83.3333,0,0,83.3333,516.394,288.092)"><path d="M0.151,-0.6l-0.09,0l0,-0.1l0.09,0l0,0.1Zm0,0.6l-0.09,0l0,-0.49l0.09,0l0,0.49Z" style="fill:#181a1b;fill-rule:nonzero;"/></g><g transform="matrix(83.3333,0,0,83.3333,534.061,288.092)"><path d="M0.545,-0.379c-0.034,-0.035 -0.075,-0.053 -0.122,-0.053c-0.031,0 -0.061,0.008 -0.092,0.025c-0.03,0.017 -0.057,0.038 -0.081,0.064c-0.024,0.027 -0.044,0.057 -0.059,0.09c-0.015,0.034 -0.022,0.068 -0.022,0.102c0,0.032 0.007,0.058 0.022,0.079c0.015,0.021 0.039,0.032 0.073,0.032c0.014,0 0.029,-0.003 0.046,-0.009c0.017,-0.005 0.033,-0.013 0.049,-0.024c0.016,-0.01 0.031,-0.022 0.045,-0.036c0.015,-0.014 0.027,-0.03 0.036,-0.047c0,0.001 0,0.003 -0.001,0.006l-0.002,0.019c0,0.003 0,0.005 0,0.006c0,0.021 0.004,0.04 0.013,0.057c0.009,0.017 0.023,0.026 0.042,0.026c0.01,0 0.021,-0.002 0.033,-0.005c0.012,-0.004 0.024,-0.009 0.036,-0.015c0.012,-0.006 0.024,-0.013 0.035,-0.021c0.011,-0.007 0.021,-0.015 0.029,-0.023c-0.016,0.029 -0.036,0.055 -0.059,0.079c-0.023,0.023 -0.049,0.044 -0.078,0.061c-0.029,0.017 -0.059,0.03 -0.092,0.039c-0.032,0.009 -0.065,0.014 -0.099,0.014c-0.038,0 -0.072,-0.006 -0.103,-0.017c-0.031,-0.012 -0.057,-0.029 -0.079,-0.051c-0.021,-0.022 -0.038,-0.049 -0.049,-0.081c-0.011,-0.032 -0.017,-0.068 -0.017,-0.108c0,-0.053 0.01,-0.103 0.03,-0.15c0.02,-0.047 0.047,-0.087 0.082,-0.121c0.035,-0.035 0.075,-0.062 0.12,-0.082c0.045,-0.02 0.094,-0.03 0.145,-0.03c0.039,0 0.073,0.006 0.104,0.018c0.031,0.012 0.058,0.029 0.079,0.051c0.021,0.022 0.038,0.049 0.049,0.08c0.011,0.031 0.017,0.066 0.017,0.105c0,0.017 -0.001,0.035 -0.003,0.054c-0.001,0.019 -0.005,0.037 -0.01,0.054c-0.005,0.017 -0.014,0.032 -0.024,0.046c-0.011,0.014 -0.026,0.025 -0.045,0.034c-0.026,0.011 -0.048,0.017 -0.066,0.017c-0.025,0 -0.037,-0.018 -0.037,-0.053c0,-0.009 0.002,-0.021 0.005,-0.037c0.003,-0.016 0.008,-0.034 0.013,-0.054l0.037,-0.141Zm-0.121,0.008c0.031,0 0.049,0.007 0.054,0.022c-0.004,0.026 -0.013,0.053 -0.026,0.082c-0.014,0.028 -0.03,0.054 -0.048,0.078c-0.018,0.024 -0.037,0.044 -0.056,0.06c-0.02,0.015 -0.038,0.023 -0.055,0.023c-0.015,0 -0.026,-0.006 -0.033,-0.018c-0.007,-0.012 -0.011,-0.027 -0.011,-0.046c0,-0.026 0.006,-0.051 0.017,-0.075c0.011,-0.025 0.026,-0.046 0.044,-0.064c0.017,-0.019 0.036,-0.034 0.057,-0.045c0.02,-0.011 0.039,-0.017 0.057,-0.017Z" style="fill:#181a1b;fill-rule:nonzero;"/></g><g transform="matrix(83.3333,0,0,83.3333,594.228,288.092)"><path d="M0.498,-0.49l-0.3,0.732l-0.1,0l0.113,-0.264l-0.204,-0.468l0.1,0l0.153,0.364l0.138,-0.364l0.1,0Z" style="fill:#181a1b;fill-rule:nonzero;"/></g><g transform="matrix(83.3333,0,0,83.3333,635.811,288.092)"><path d="M0.472,-0.062l-0.014,0.072l-0.007,0c-0.02,0 -0.037,-0.001 -0.05,-0.004c-0.013,-0.002 -0.025,-0.006 -0.034,-0.012c-0.009,-0.005 -0.017,-0.013 -0.023,-0.022c-0.007,-0.009 -0.013,-0.021 -0.019,-0.034c-0.041,0.048 -0.091,0.072 -0.15,0.072c-0.046,0 -0.083,-0.013 -0.11,-0.04c-0.027,-0.026 -0.041,-0.06 -0.041,-0.102c0,-0.034 0.009,-0.062 0.028,-0.084c0.018,-0.022 0.041,-0.04 0.07,-0.053c0.028,-0.013 0.059,-0.023 0.094,-0.028c0.035,-0.006 0.068,-0.009 0.101,-0.01c0,-0.044 -0.008,-0.074 -0.025,-0.089c-0.017,-0.016 -0.045,-0.024 -0.082,-0.024c-0.043,0 -0.086,0.015 -0.129,0.044l-0.013,-0.073c0.044,-0.034 0.099,-0.051 0.166,-0.051c0.031,0 0.058,0.004 0.08,0.013c0.022,0.008 0.04,0.021 0.054,0.04c0.013,0.018 0.023,0.042 0.03,0.072c0.006,0.03 0.009,0.067 0.009,0.11l0,0.1c0,0.039 0.003,0.066 0.01,0.081c0.007,0.015 0.022,0.022 0.046,0.022l0.009,0Zm-0.155,-0.066l0,-0.117c-0.072,0.003 -0.123,0.012 -0.154,0.029c-0.031,0.016 -0.047,0.042 -0.047,0.079c0,0.05 0.025,0.075 0.076,0.075c0.024,0 0.047,-0.006 0.07,-0.018c0.022,-0.012 0.04,-0.028 0.055,-0.048Z" style="fill:#181a1b;fill-rule:nonzero;"/></g><g transform="matrix(83.3333,0,0,83.3333,675.811,288.092)"><path d="M0.503,0l-0.09,0l0,-0.27c0,-0.053 -0.01,-0.091 -0.03,-0.114c-0.019,-0.024 -0.052,-0.036 -0.098,-0.036c-0.065,0 -0.11,0.021 -0.134,0.064l0,0.356l-0.09,0l0,-0.49l0.07,0l0.01,0.052c0.047,-0.041 0.101,-0.062 0.162,-0.062c0.133,0 0.2,0.077 0.2,0.23l0,0.27Z" style="fill:#181a1b;fill-rule:nonzero;"/></g><g transform="matrix(83.3333,0,0,83.3333,722.394,288.092)"><path d="M0.255,0.25c-0.039,0 -0.072,-0.004 -0.101,-0.012c-0.029,-0.008 -0.053,-0.019 -0.071,-0.032c-0.019,-0.014 -0.034,-0.03 -0.043,-0.048c-0.009,-0.018 -0.014,-0.037 -0.014,-0.056c0,-0.052 0.029,-0.089 0.087,-0.11c-0.033,-0.016 -0.05,-0.037 -0.05,-0.062c0,-0.011 0.005,-0.024 0.014,-0.037c0.009,-0.014 0.023,-0.026 0.044,-0.036c-0.057,-0.041 -0.085,-0.094 -0.085,-0.16c0,-0.028 0.005,-0.054 0.014,-0.078c0.009,-0.024 0.022,-0.045 0.039,-0.062c0.017,-0.018 0.038,-0.032 0.063,-0.042c0.025,-0.01 0.053,-0.015 0.084,-0.015c0.044,0 0.086,0.012 0.125,0.036c0.035,-0.019 0.074,-0.028 0.119,-0.028l0.008,0l-0.011,0.06l-0.023,0c-0.021,0 -0.04,0.002 -0.058,0.007c0.03,0.036 0.045,0.075 0.045,0.117c0,0.026 -0.005,0.051 -0.014,0.074c-0.009,0.023 -0.022,0.044 -0.039,0.062c-0.017,0.018 -0.038,0.032 -0.062,0.043c-0.025,0.011 -0.052,0.016 -0.083,0.016c-0.026,0 -0.049,-0.003 -0.07,-0.009c-0.016,0.009 -0.024,0.019 -0.024,0.03c0,0.006 0.002,0.011 0.006,0.015c0.003,0.005 0.011,0.009 0.022,0.012c0.011,0.003 0.026,0.007 0.046,0.01c0.019,0.004 0.045,0.009 0.078,0.015c0.022,0.004 0.045,0.009 0.068,0.015c0.023,0.006 0.045,0.014 0.064,0.024c0.019,0.01 0.034,0.023 0.047,0.038c0.013,0.016 0.02,0.036 0.021,0.059c0,0.021 -0.006,0.04 -0.017,0.059c-0.011,0.019 -0.027,0.035 -0.048,0.049c-0.021,0.014 -0.047,0.025 -0.078,0.034c-0.031,0.008 -0.065,0.012 -0.103,0.012Zm-0.018,-0.678c-0.037,0 -0.065,0.011 -0.085,0.034c-0.02,0.022 -0.03,0.051 -0.03,0.088c0,0.038 0.011,0.068 0.033,0.091c0.021,0.022 0.049,0.033 0.084,0.033c0.036,0 0.064,-0.012 0.085,-0.036c0.021,-0.024 0.031,-0.054 0.031,-0.091c0,-0.038 -0.011,-0.067 -0.032,-0.088c-0.021,-0.021 -0.05,-0.031 -0.086,-0.031Zm0.042,0.454c-0.011,0 -0.041,-0.004 -0.089,-0.012c-0.023,0.007 -0.041,0.018 -0.056,0.035c-0.015,0.017 -0.022,0.034 -0.022,0.051c0,0.023 0.013,0.043 0.039,0.058c0.026,0.015 0.062,0.022 0.108,0.022c0.048,0 0.085,-0.008 0.112,-0.023c0.026,-0.016 0.039,-0.034 0.039,-0.055c0,-0.035 -0.044,-0.06 -0.131,-0.076Z" style="fill:#181a1b;fill-rule:nonzero;"/></g><g transform="matrix(83.3333,0,0,83.3333,763.894,288.092)"><path d="M0.821,0l-0.09,0l0,-0.288c0,-0.046 -0.009,-0.079 -0.027,-0.1c-0.018,-0.021 -0.047,-0.032 -0.088,-0.032c-0.087,0 -0.13,0.045 -0.13,0.136l0,0.284l-0.09,0l0,-0.27c0,-0.056 -0.01,-0.095 -0.03,-0.117c-0.019,-0.022 -0.048,-0.033 -0.085,-0.033c-0.063,0 -0.106,0.021 -0.13,0.064l0,0.356l-0.09,0l0,-0.49l0.07,0l0.01,0.052c0.027,-0.024 0.051,-0.04 0.073,-0.049c0.022,-0.009 0.047,-0.013 0.074,-0.013c0.075,0 0.13,0.033 0.166,0.098c0.034,-0.065 0.094,-0.098 0.179,-0.098c0.125,0 0.188,0.07 0.188,0.211l0,0.289Z" style="fill:#181a1b;fill-rule:nonzero;"/></g><g transform="matrix(83.3333,0,0,83.3333,836.978,288.092)"><path d="M0.151,-0.6l-0.09,0l0,-0.1l0.09,0l0,0.1Zm0,0.6l-0.09,0l0,-0.49l0.09,0l0,0.49Z" style="fill:#181a1b;fill-rule:nonzero;"/></g><g transform="matrix(83.3333,0,0,83.3333,854.644,288.092)"><path d="M0.503,0l-0.09,0l0,-0.27c0,-0.053 -0.01,-0.091 -0.03,-0.114c-0.019,-0.024 -0.052,-0.036 -0.098,-0.036c-0.065,0 -0.11,0.021 -0.134,0.064l0,0.356l-0.09,0l0,-0.49l0.07,0l0.01,0.052c0.047,-0.041 0.101,-0.062 0.162,-0.062c0.133,0 0.2,0.077 0.2,0.23l0,0.27Z" style="fill:#181a1b;fill-rule:nonzero;"/></g><g transform="matrix(83.3333,0,0,83.3333,901.228,288.092)"><path d="M0.495,0l-0.08,0l-0.01,-0.062c-0.008,0.011 -0.018,0.021 -0.03,0.03c-0.013,0.009 -0.026,0.016 -0.039,0.023c-0.014,0.006 -0.028,0.011 -0.042,0.014c-0.014,0.003 -0.027,0.005 -0.039,0.005c-0.031,0 -0.061,-0.007 -0.088,-0.02c-0.027,-0.013 -0.051,-0.032 -0.071,-0.055c-0.02,-0.023 -0.036,-0.05 -0.047,-0.08c-0.011,-0.031 -0.017,-0.065 -0.017,-0.1c0,-0.034 0.005,-0.066 0.016,-0.098c0.011,-0.03 0.026,-0.058 0.045,-0.081c0.02,-0.023 0.044,-0.042 0.071,-0.055c0.027,-0.014 0.058,-0.021 0.091,-0.021c0.066,0 0.116,0.021 0.15,0.062l0,-0.312l0.09,0l0,0.75Zm-0.233,-0.42c-0.021,0 -0.04,0.004 -0.057,0.013c-0.018,0.009 -0.032,0.021 -0.044,0.036c-0.012,0.015 -0.021,0.034 -0.028,0.055c-0.006,0.021 -0.009,0.045 -0.009,0.071c0,0.024 0.003,0.047 0.009,0.068c0.007,0.021 0.016,0.04 0.027,0.055c0.012,0.016 0.026,0.029 0.043,0.038c0.017,0.009 0.037,0.014 0.059,0.014c0.02,0 0.039,-0.004 0.057,-0.011c0.019,-0.007 0.035,-0.017 0.049,-0.032c0.015,-0.014 0.026,-0.032 0.034,-0.054c0.009,-0.021 0.013,-0.046 0.013,-0.075c0,-0.028 -0.004,-0.053 -0.013,-0.075c-0.009,-0.022 -0.02,-0.041 -0.035,-0.056c-0.014,-0.015 -0.03,-0.027 -0.048,-0.035c-0.019,-0.008 -0.038,-0.012 -0.057,-0.012Z" style="fill:#181a1b;fill-rule:nonzero;"/></g><g transform="matrix(83.3333,0,0,83.3333,947.478,288.092)"><path d="M0.478,-0.245l-0.355,0c0.011,0.117 0.072,0.175 0.184,0.175c0.05,0 0.097,-0.01 0.141,-0.029l0.012,0.071c-0.058,0.025 -0.113,0.038 -0.164,0.038c-0.041,0 -0.079,-0.007 -0.112,-0.02c-0.033,-0.013 -0.06,-0.032 -0.083,-0.055c-0.023,-0.023 -0.04,-0.05 -0.052,-0.082c-0.012,-0.031 -0.018,-0.065 -0.018,-0.102c0,-0.035 0.006,-0.068 0.017,-0.099c0.011,-0.031 0.027,-0.057 0.048,-0.08c0.021,-0.022 0.046,-0.04 0.075,-0.052c0.03,-0.014 0.063,-0.02 0.1,-0.02c0.031,0 0.06,0.005 0.086,0.014c0.026,0.009 0.048,0.023 0.066,0.041c0.019,0.018 0.033,0.04 0.043,0.066c0.011,0.025 0.016,0.054 0.016,0.086c0,0.019 -0.001,0.035 -0.004,0.048Zm-0.209,-0.175c-0.073,0 -0.119,0.038 -0.138,0.113l0.258,0c0,-0.036 -0.01,-0.064 -0.03,-0.083c-0.02,-0.02 -0.05,-0.03 -0.09,-0.03Z" style="fill:#181a1b;fill-rule:nonzero;"/></g><g transform="matrix(83.3333,0,0,83.3333,990.144,288.092)"><path d="M0.495,0l-0.08,0l-0.01,-0.062c-0.008,0.011 -0.018,0.021 -0.03,0.03c-0.013,0.009 -0.026,0.016 -0.039,0.023c-0.014,0.006 -0.028,0.011 -0.042,0.014c-0.014,0.003 -0.027,0.005 -0.039,0.005c-0.031,0 -0.061,-0.007 -0.088,-0.02c-0.027,-0.013 -0.051,-0.032 -0.071,-0.055c-0.02,-0.023 -0.036,-0.05 -0.047,-0.08c-0.011,-0.031 -0.017,-0.065 -0.017,-0.1c0,-0.034 0.005,-0.066 0.016,-0.098c0.011,-0.03 0.026,-0.058 0.045,-0.081c0.02,-0.023 0.044,-0.042 0.071,-0.055c0.027,-0.014 0.058,-0.021 0.091,-0.021c0.066,0 0.116,0.021 0.15,0.062l0,-0.312l0.09,0l0,0.75Zm-0.233,-0.42c-0.021,0 -0.04,0.004 -0.057,0.013c-0.018,0.009 -0.032,0.021 -0.044,0.036c-0.012,0.015 -0.021,0.034 -0.028,0.055c-0.006,0.021 -0.009,0.045 -0.009,0.071c0,0.024 0.003,0.047 0.009,0.068c0.007,0.021 0.016,0.04 0.027,0.055c0.012,0.016 0.026,0.029 0.043,0.038c0.017,0.009 0.037,0.014 0.059,0.014c0.02,0 0.039,-0.004 0.057,-0.011c0.019,-0.007 0.035,-0.017 0.049,-0.032c0.015,-0.014 0.026,-0.032 0.034,-0.054c0.009,-0.021 0.013,-0.046 0.013,-0.075c0,-0.028 -0.004,-0.053 -0.013,-0.075c-0.009,-0.022 -0.02,-0.041 -0.035,-0.056c-0.014,-0.015 -0.03,-0.027 -0.048,-0.035c-0.019,-0.008 -0.038,-0.012 -0.057,-0.012Z" style="fill:#181a1b;fill-rule:nonzero;"/></g><g transform="matrix(83.3333,0,0,83.3333,1036.39,288.092)"><rect x="0.057" y="-0.086" width="0.09" height="0.086" style="fill:#181a1b;fill-rule:nonzero;"/></g><g transform="matrix(83.3333,0,0,83.3333,1053.39,288.092)"><path d="M0.277,0.01c-0.039,0 -0.074,-0.007 -0.104,-0.02c-0.03,-0.013 -0.056,-0.031 -0.077,-0.054c-0.021,-0.023 -0.036,-0.05 -0.047,-0.08c-0.011,-0.031 -0.016,-0.065 -0.016,-0.102c0,-0.037 0.005,-0.071 0.016,-0.103c0.011,-0.03 0.026,-0.057 0.046,-0.08c0.021,-0.023 0.046,-0.04 0.077,-0.052c0.03,-0.013 0.065,-0.019 0.104,-0.019c0.065,0 0.116,0.01 0.151,0.029l-0.014,0.081c-0.041,-0.02 -0.084,-0.03 -0.127,-0.03c-0.054,0 -0.094,0.015 -0.121,0.045c-0.027,0.03 -0.04,0.073 -0.04,0.129c0,0.056 0.013,0.099 0.04,0.13c0.027,0.031 0.067,0.047 0.121,0.047c0.044,0 0.087,-0.01 0.128,-0.03l0.012,0.072c-0.037,0.025 -0.086,0.037 -0.149,0.037Z" style="fill:#181a1b;fill-rule:nonzero;"/></g><g transform="matrix(83.3333,0,0,83.3333,1090.64,288.092)"><path d="M0.452,-0.062c-0.043,0.048 -0.102,0.072 -0.177,0.072c-0.038,0 -0.072,-0.007 -0.102,-0.02c-0.03,-0.013 -0.056,-0.03 -0.077,-0.053c-0.021,-0.023 -0.037,-0.05 -0.048,-0.081c-0.011,-0.031 -0.016,-0.065 -0.016,-0.101c0,-0.037 0.006,-0.071 0.017,-0.102c0.011,-0.031 0.027,-0.057 0.048,-0.08c0.021,-0.023 0.047,-0.041 0.077,-0.053c0.03,-0.014 0.064,-0.02 0.101,-0.02c0.037,0 0.071,0.007 0.101,0.02c0.03,0.012 0.055,0.03 0.077,0.053c0.021,0.023 0.037,0.05 0.048,0.081c0.011,0.031 0.017,0.065 0.017,0.101c0,0.073 -0.022,0.134 -0.066,0.183Zm-0.066,-0.312c-0.026,-0.031 -0.063,-0.046 -0.111,-0.046c-0.048,0 -0.085,0.015 -0.112,0.045c-0.026,0.031 -0.039,0.074 -0.039,0.13c0,0.056 0.013,0.099 0.039,0.13c0.027,0.03 0.064,0.045 0.112,0.045c0.049,0 0.086,-0.016 0.112,-0.047c0.026,-0.031 0.039,-0.074 0.039,-0.128c0,-0.055 -0.013,-0.098 -0.04,-0.129Z" style="fill:#181a1b;fill-rule:nonzero;"/></g><g transform="matrix(83.3333,0,0,83.3333,1136.48,288.092)"><path d="M0.821,0l-0.09,0l0,-0.288c0,-0.046 -0.009,-0.079 -0.027,-0.1c-0.018,-0.021 -0.047,-0.032 -0.088,-0.032c-0.087,0 -0.13,0.045 -0.13,0.136l0,0.284l-0.09,0l0,-0.27c0,-0.056 -0.01,-0.095 -0.03,-0.117c-0.019,-0.022 -0.048,-0.033 -0.085,-0.033c-0.063,0 -0.106,0.021 -0.13,0.064l0,0.356l-0.09,0l0,-0.49l0.07,0l0.01,0.052c0.027,-0.024 0.051,-0.04 0.073,-0.049c0.022,-0.009 0.047,-0.013 0.074,-0.013c0.075,0 0.13,0.033 0.166,0.098c0.034,-0.065 0.094,-0.098 0.179,-0.098c0.125,0 0.188,0.07 0.188,0.211l0,0.289Z" style="fill:#181a1b;fill-rule:nonzero;"/></g><g transform="matrix(83.3333,0,0,83.3333,77.3111,396.425)"><path d="M0.18,-0.245l0,0.245l-0.1,0l0,-0.7l0.224,0c0.033,0 0.064,0.002 0.093,0.008c0.029,0.005 0.055,0.015 0.078,0.031c0.022,0.015 0.04,0.037 0.053,0.066c0.013,0.029 0.02,0.066 0.02,0.113c0,0.045 -0.007,0.083 -0.021,0.113c-0.013,0.031 -0.031,0.055 -0.052,0.074c-0.021,0.018 -0.045,0.031 -0.07,0.038c-0.025,0.008 -0.05,0.012 -0.073,0.012l-0.152,0Zm0,-0.37l0,0.285l0.134,0c0.049,0 0.083,-0.013 0.104,-0.039c0.021,-0.025 0.031,-0.062 0.031,-0.109c0,-0.025 -0.003,-0.046 -0.008,-0.064c-0.005,-0.017 -0.014,-0.031 -0.027,-0.042c-0.013,-0.011 -0.03,-0.019 -0.051,-0.024c-0.021,-0.004 -0.046,-0.007 -0.077,-0.007l-0.106,0Z" style="fill:#181a1b;fill-rule:nonzero;"/></g><g transform="matrix(83.3333,0,0,83.3333,124.561,396.425)"><path d="M0.486,0l-0.09,0l0,-0.262c0,-0.058 -0.009,-0.099 -0.026,-0.123c-0.017,-0.023 -0.048,-0.035 -0.091,-0.035c-0.059,0 -0.101,0.021 -0.128,0.064l0,0.356l-0.091,0l0,-0.75l0.091,0l0,0.313c0.033,-0.042 0.08,-0.063 0.142,-0.063c0.129,0 0.193,0.079 0.193,0.238l0,0.262Z" style="fill:#181a1b;fill-rule:nonzero;"/></g><g transform="matrix(83.3333,0,0,83.3333,169.728,396.425)"><path d="M0.452,-0.062c-0.043,0.048 -0.102,0.072 -0.177,0.072c-0.038,0 -0.072,-0.007 -0.102,-0.02c-0.03,-0.013 -0.056,-0.03 -0.077,-0.053c-0.021,-0.023 -0.037,-0.05 -0.048,-0.081c-0.011,-0.031 -0.016,-0.065 -0.016,-0.101c0,-0.037 0.006,-0.071 0.017,-0.102c0.011,-0.031 0.027,-0.057 0.048,-0.08c0.021,-0.023 0.047,-0.041 0.077,-0.053c0.03,-0.014 0.064,-0.02 0.101,-0.02c0.037,0 0.071,0.007 0.101,0.02c0.03,0.012 0.055,0.03 0.077,0.053c0.021,0.023 0.037,0.05 0.048,0.081c0.011,0.031 0.017,0.065 0.017,0.101c0,0.073 -0.022,0.134 -0.066,0.183Zm-0.066,-0.312c-0.026,-0.031 -0.063,-0.046 -0.111,-0.046c-0.048,0 -0.085,0.015 -0.112,0.045c-0.026,0.031 -0.039,0.074 -0.039,0.13c0,0.056 0.013,0.099 0.039,0.13c0.027,0.03 0.064,0.045 0.112,0.045c0.049,0 0.086,-0.016 0.112,-0.047c0.026,-0.031 0.039,-0.074 0.039,-0.128c0,-0.055 -0.013,-0.098 -0.04,-0.129Z" style="fill:#181a1b;fill-rule:nonzero;"/></g><g transform="matrix(83.3333,0,0,83.3333,215.561,396.425)"><path d="M0.503,0l-0.09,0l0,-0.27c0,-0.053 -0.01,-0.091 -0.03,-0.114c-0.019,-0.024 -0.052,-0.036 -0.098,-0.036c-0.065,0 -0.11,0.021 -0.134,0.064l0,0.356l-0.09,0l0,-0.49l0.07,0l0.01,0.052c0.047,-0.041 0.101,-0.062 0.162,-0.062c0.133,0 0.2,0.077 0.2,0.23l0,0.27Z" style="fill:#181a1b;fill-rule:nonzero;"/></g><g transform="matrix(83.3333,0,0,83.3333,262.144,396.425)"><path d="M0.478,-0.245l-0.355,0c0.011,0.117 0.072,0.175 0.184,0.175c0.05,0 0.097,-0.01 0.141,-0.029l0.012,0.071c-0.058,0.025 -0.113,0.038 -0.164,0.038c-0.041,0 -0.079,-0.007 -0.112,-0.02c-0.033,-0.013 -0.06,-0.032 -0.083,-0.055c-0.023,-0.023 -0.04,-0.05 -0.052,-0.082c-0.012,-0.031 -0.018,-0.065 -0.018,-0.102c0,-0.035 0.006,-0.068 0.017,-0.099c0.011,-0.031 0.027,-0.057 0.048,-0.08c0.021,-0.022 0.046,-0.04 0.075,-0.052c0.03,-0.014 0.063,-0.02 0.1,-0.02c0.031,0 0.06,0.005 0.086,0.014c0.026,0.009 0.048,0.023 0.066,0.041c0.019,0.018 0.033,0.04 0.043,0.066c0.011,0.025 0.016,0.054 0.016,0.086c0,0.019 -0.001,0.035 -0.004,0.048Zm-0.209,-0.175c-0.073,0 -0.119,0.038 -0.138,0.113l0.258,0c0,-0.036 -0.01,-0.064 -0.03,-0.083c-0.02,-0.02 -0.05,-0.03 -0.09,-0.03Z" style="fill:#181a1b;fill-rule:nonzero;"/></g><g transform="matrix(83.3333,0,0,83.3333,304.811,396.425)"><path d="M0.147,-0.354l-0.09,0l0,-0.086l0.09,0l0,0.086Zm0,0.354l-0.09,0l0,-0.086l0.09,0l0,0.086Z" style="fill:#181a1b;fill-rule:nonzero;"/></g><g transform="matrix(83.3333,0,0,83.3333,340.561,396.425)"><path d="M0.237,0.136l-0.079,0c-0.02,-0.03 -0.037,-0.061 -0.052,-0.092c-0.015,-0.031 -0.027,-0.064 -0.036,-0.099c-0.009,-0.035 -0.016,-0.074 -0.021,-0.115c-0.005,-0.041 -0.007,-0.087 -0.007,-0.137c0,-0.051 0.002,-0.097 0.007,-0.138c0.005,-0.041 0.012,-0.08 0.021,-0.115c0.01,-0.035 0.022,-0.068 0.037,-0.099c0.015,-0.031 0.032,-0.061 0.051,-0.091l0.079,0c-0.082,0.133 -0.123,0.281 -0.123,0.443c0,0.163 0.041,0.31 0.123,0.443Z" style="fill:#181a1b;fill-rule:nonzero;"/></g><g transform="matrix(83.3333,0,0,83.3333,362.311,396.425)"><path d="M0.416,-0.238l-0.145,0l0,0.136l-0.08,0l0,-0.136l-0.145,0l0,-0.086l0.145,0l0,-0.128l0.08,0l0,0.128l0.145,0l0,0.086Z" style="fill:#181a1b;fill-rule:nonzero;"/></g><g transform="matrix(83.3333,0,0,83.3333,400.894,396.425)"><path d="M0.5,-0.19l-0.085,0l0,0.19l-0.1,0l0,-0.19l-0.301,0l0.322,-0.51l0.079,0l0,0.424l0.085,0l0,0.086Zm-0.185,-0.086l0,-0.254l-0.153,0.254l0.153,0Z" style="fill:#181a1b;fill-rule:nonzero;"/></g><g transform="matrix(83.3333,0,0,83.3333,447.478,396.425)"><path d="M0.288,-0.714c0.028,0 0.055,0.004 0.081,0.012c0.027,0.008 0.05,0.022 0.07,0.041c0.021,0.019 0.037,0.045 0.049,0.077c0.013,0.033 0.019,0.073 0.019,0.122c0,0.073 -0.01,0.139 -0.03,0.196c-0.021,0.057 -0.046,0.106 -0.075,0.145c-0.03,0.039 -0.062,0.069 -0.095,0.09c-0.034,0.021 -0.064,0.031 -0.091,0.031l-0.073,-0.038c0.027,-0.013 0.055,-0.028 0.083,-0.045c0.027,-0.017 0.053,-0.037 0.076,-0.061c0.023,-0.023 0.043,-0.051 0.06,-0.082c0.017,-0.031 0.028,-0.068 0.034,-0.11c-0.013,0.018 -0.033,0.032 -0.058,0.042c-0.025,0.01 -0.052,0.015 -0.081,0.015c-0.067,0 -0.119,-0.017 -0.156,-0.051c-0.037,-0.034 -0.056,-0.084 -0.056,-0.151c0,-0.034 0.006,-0.065 0.018,-0.094c0.012,-0.028 0.029,-0.052 0.05,-0.073c0.021,-0.021 0.047,-0.037 0.077,-0.049c0.029,-0.011 0.062,-0.017 0.098,-0.017Zm-0.022,0.353c0.02,0 0.038,-0.003 0.055,-0.01c0.018,-0.007 0.032,-0.016 0.045,-0.029c0.013,-0.012 0.023,-0.027 0.03,-0.043c0.007,-0.017 0.011,-0.037 0.011,-0.058c0,-0.021 -0.004,-0.039 -0.011,-0.055c-0.007,-0.017 -0.016,-0.03 -0.028,-0.041c-0.011,-0.011 -0.025,-0.02 -0.041,-0.025c-0.016,-0.006 -0.033,-0.009 -0.051,-0.009c-0.022,0 -0.041,0.004 -0.058,0.012c-0.017,0.008 -0.031,0.019 -0.042,0.032c-0.011,0.013 -0.02,0.029 -0.026,0.047c-0.005,0.017 -0.008,0.035 -0.008,0.054c0,0.016 0.002,0.032 0.006,0.047c0.005,0.015 0.012,0.029 0.021,0.04c0.01,0.011 0.023,0.021 0.039,0.028c0.015,0.007 0.035,0.01 0.058,0.01Z" style="fill:#181a1b;fill-rule:nonzero;"/></g><g transform="matrix(83.3333,0,0,83.3333,493.311,396.425)"><path d="M0.103,0.136l-0.079,0c0.082,-0.133 0.123,-0.28 0.123,-0.443c0,-0.162 -0.041,-0.31 -0.123,-0.443l0.079,0c0.019,0.03 0.036,0.06 0.051,0.091c0.015,0.031 0.027,0.064 0.036,0.099c0.01,0.035 0.017,0.074 0.022,0.115c0.005,0.041 0.007,0.087 0.007,0.138c0,0.05 -0.002,0.096 -0.007,0.137c-0.005,0.041 -0.012,0.08 -0.022,0.115c-0.009,0.035 -0.021,0.069 -0.036,0.1c-0.014,0.031 -0.031,0.061 -0.051,0.091Z" style="fill:#181a1b;fill-rule:nonzero;"/></g><g transform="matrix(83.3333,0,0,83.3333,533.811,396.425)"><path d="M0.254,0l-0.1,0l0,-0.563c-0.036,0.03 -0.071,0.05 -0.104,0.061l-0.016,-0.089c0.014,-0.005 0.028,-0.011 0.043,-0.019c0.014,-0.007 0.028,-0.016 0.041,-0.026c0.013,-0.009 0.024,-0.019 0.036,-0.03c0.011,-0.012 0.02,-0.023 0.027,-0.034l0.073,0l0,0.7Z" style="fill:#181a1b;fill-rule:nonzero;"/></g><g transform="matrix(83.3333,0,0,83.3333,563.394,396.425)"><path d="M0.492,-0.7l-0.303,0.7l-0.1,0l0.265,-0.614l-0.315,0l0,-0.086l0.453,0Z" style="fill:#181a1b;fill-rule:nonzero;"/></g><g transform="matrix(83.3333,0,0,83.3333,605.228,396.425)"><path d="M0.23,0.014c-0.02,0 -0.04,-0.002 -0.061,-0.006c-0.02,-0.003 -0.039,-0.008 -0.057,-0.014c-0.017,-0.005 -0.033,-0.011 -0.046,-0.017c-0.013,-0.006 -0.021,-0.011 -0.026,-0.016l0.023,-0.088c0.019,0.01 0.035,0.018 0.049,0.025c0.014,0.007 0.027,0.012 0.039,0.017c0.013,0.005 0.025,0.008 0.038,0.01c0.013,0.002 0.027,0.003 0.042,0.003c0.02,0 0.039,-0.003 0.057,-0.007c0.019,-0.005 0.035,-0.014 0.048,-0.025c0.013,-0.011 0.024,-0.026 0.032,-0.044c0.008,-0.018 0.012,-0.04 0.012,-0.065c0,-0.02 -0.003,-0.038 -0.009,-0.054c-0.005,-0.016 -0.014,-0.03 -0.027,-0.041c-0.013,-0.011 -0.03,-0.02 -0.051,-0.026c-0.021,-0.006 -0.048,-0.009 -0.079,-0.009l-0.073,0l0.01,-0.076l0.037,0c0.061,0 0.104,-0.01 0.129,-0.029c0.025,-0.019 0.038,-0.048 0.038,-0.086c0,-0.063 -0.04,-0.094 -0.119,-0.094c-0.057,0 -0.102,0.014 -0.135,0.041l-0.017,-0.081c0.011,-0.011 0.03,-0.021 0.058,-0.031c0.027,-0.01 0.062,-0.015 0.104,-0.015c0.044,0 0.08,0.006 0.108,0.017c0.027,0.012 0.049,0.027 0.065,0.044c0.015,0.018 0.026,0.037 0.032,0.058c0.005,0.021 0.008,0.042 0.008,0.061c0,0.028 -0.007,0.053 -0.02,0.076c-0.013,0.023 -0.037,0.047 -0.071,0.07c0.077,0.026 0.116,0.084 0.116,0.174c0,0.036 -0.007,0.068 -0.02,0.096c-0.013,0.029 -0.031,0.053 -0.054,0.072c-0.023,0.02 -0.05,0.035 -0.081,0.045c-0.031,0.01 -0.064,0.015 -0.099,0.015Z" style="fill:#181a1b;fill-rule:nonzero;"/></g><g transform="matrix(83.3333,0,0,83.3333,669.561,396.425)"><rect x="0.057" y="-0.324" width="0.31" height="0.086" style="fill:#181a1b;fill-rule:nonzero;"/></g><g transform="matrix(83.3333,0,0,83.3333,723.644,396.425)"><path d="M0.296,0.014c-0.04,0 -0.075,-0.006 -0.104,-0.017c-0.03,-0.01 -0.055,-0.025 -0.074,-0.044c-0.02,-0.019 -0.035,-0.04 -0.044,-0.065c-0.01,-0.024 -0.015,-0.05 -0.015,-0.077c0,-0.077 0.045,-0.14 0.134,-0.187c-0.062,-0.048 -0.093,-0.103 -0.093,-0.164c0,-0.024 0.004,-0.047 0.012,-0.068c0.008,-0.021 0.02,-0.04 0.037,-0.055c0.017,-0.015 0.038,-0.027 0.064,-0.036c0.026,-0.009 0.058,-0.014 0.095,-0.014c0.036,0 0.067,0.004 0.092,0.013c0.025,0.008 0.046,0.019 0.063,0.034c0.016,0.014 0.028,0.031 0.035,0.05c0.008,0.019 0.012,0.04 0.012,0.061c0,0.018 -0.002,0.034 -0.005,0.048c-0.004,0.013 -0.011,0.026 -0.02,0.039c-0.009,0.013 -0.021,0.025 -0.035,0.038c-0.015,0.013 -0.034,0.027 -0.057,0.043c0.054,0.019 0.094,0.043 0.119,0.073c0.025,0.029 0.037,0.068 0.037,0.116c0,0.027 -0.006,0.053 -0.017,0.078c-0.011,0.025 -0.027,0.048 -0.048,0.068c-0.021,0.02 -0.048,0.036 -0.08,0.048c-0.031,0.012 -0.067,0.018 -0.108,0.018Zm-0.109,-0.548c0,0.023 0.01,0.044 0.03,0.064c0.02,0.02 0.047,0.036 0.081,0.049c0.039,-0.011 0.068,-0.028 0.087,-0.05c0.02,-0.023 0.03,-0.047 0.03,-0.074c0,-0.026 -0.01,-0.046 -0.029,-0.061c-0.019,-0.015 -0.047,-0.022 -0.083,-0.022c-0.036,0 -0.064,0.008 -0.085,0.025c-0.021,0.016 -0.031,0.039 -0.031,0.069Zm0.119,0.196c-0.044,0.009 -0.079,0.025 -0.104,0.05c-0.026,0.024 -0.039,0.057 -0.039,0.099c0,0.039 0.012,0.068 0.036,0.088c0.023,0.019 0.057,0.029 0.101,0.029c0.021,0 0.041,-0.003 0.059,-0.009c0.018,-0.007 0.034,-0.016 0.047,-0.027c0.013,-0.011 0.024,-0.025 0.031,-0.04c0.007,-0.016 0.011,-0.033 0.011,-0.051c0,-0.034 -0.013,-0.063 -0.039,-0.087c-0.027,-0.025 -0.061,-0.042 -0.103,-0.052Z" style="fill:#181a1b;fill-rule:nonzero;"/></g><g transform="matrix(83.3333,0,0,83.3333,774.394,396.425)"><path d="M0.47,0l-0.414,0c0.061,-0.086 0.11,-0.159 0.149,-0.219c0.039,-0.059 0.067,-0.106 0.086,-0.141c0.037,-0.069 0.056,-0.12 0.056,-0.152c0,-0.036 -0.011,-0.064 -0.032,-0.084c-0.022,-0.019 -0.052,-0.029 -0.09,-0.029c-0.062,0 -0.116,0.031 -0.163,0.093l-0.012,-0.085c0.005,-0.009 0.013,-0.019 0.025,-0.03c0.011,-0.011 0.026,-0.022 0.043,-0.032c0.017,-0.01 0.036,-0.018 0.059,-0.025c0.022,-0.007 0.046,-0.01 0.072,-0.01c0.037,0 0.068,0.006 0.093,0.018c0.025,0.011 0.045,0.026 0.06,0.045c0.015,0.018 0.025,0.039 0.032,0.062c0.006,0.022 0.009,0.045 0.009,0.067c0,0.024 -0.004,0.05 -0.011,0.078c-0.008,0.027 -0.02,0.058 -0.037,0.092c-0.017,0.035 -0.04,0.074 -0.067,0.117c-0.027,0.043 -0.061,0.093 -0.1,0.149l0.242,0l0,0.086Z" style="fill:#181a1b;fill-rule:nonzero;"/></g><g transform="matrix(83.3333,0,0,83.3333,818.061,396.425)"><path d="M0.296,0.014c-0.04,0 -0.075,-0.006 -0.104,-0.017c-0.03,-0.01 -0.055,-0.025 -0.074,-0.044c-0.02,-0.019 -0.035,-0.04 -0.044,-0.065c-0.01,-0.024 -0.015,-0.05 -0.015,-0.077c0,-0.077 0.045,-0.14 0.134,-0.187c-0.062,-0.048 -0.093,-0.103 -0.093,-0.164c0,-0.024 0.004,-0.047 0.012,-0.068c0.008,-0.021 0.02,-0.04 0.037,-0.055c0.017,-0.015 0.038,-0.027 0.064,-0.036c0.026,-0.009 0.058,-0.014 0.095,-0.014c0.036,0 0.067,0.004 0.092,0.013c0.025,0.008 0.046,0.019 0.063,0.034c0.016,0.014 0.028,0.031 0.035,0.05c0.008,0.019 0.012,0.04 0.012,0.061c0,0.018 -0.002,0.034 -0.005,0.048c-0.004,0.013 -0.011,0.026 -0.02,0.039c-0.009,0.013 -0.021,0.025 -0.035,0.038c-0.015,0.013 -0.034,0.027 -0.057,0.043c0.054,0.019 0.094,0.043 0.119,0.073c0.025,0.029 0.037,0.068 0.037,0.116c0,0.027 -0.006,0.053 -0.017,0.078c-0.011,0.025 -0.027,0.048 -0.048,0.068c-0.021,0.02 -0.048,0.036 -0.08,0.048c-0.031,0.012 -0.067,0.018 -0.108,0.018Zm-0.109,-0.548c0,0.023 0.01,0.044 0.03,0.064c0.02,0.02 0.047,0.036 0.081,0.049c0.039,-0.011 0.068,-0.028 0.087,-0.05c0.02,-0.023 0.03,-0.047 0.03,-0.074c0,-0.026 -0.01,-0.046 -0.029,-0.061c-0.019,-0.015 -0.047,-0.022 -0.083,-0.022c-0.036,0 -0.064,0.008 -0.085,0.025c-0.021,0.016 -0.031,0.039 -0.031,0.069Zm0.119,0.196c-0.044,0.009 -0.079,0.025 -0.104,0.05c-0.026,0.024 -0.039,0.057 -0.039,0.099c0,0.039 0.012,0.068 0.036,0.088c0.023,0.019 0.057,0.029 0.101,0.029c0.021,0 0.041,-0.003 0.059,-0.009c0.018,-0.007 0.034,-0.016 0.047,-0.027c0.013,-0.011 0.024,-0.025 0.031,-0.04c0.007,-0.016 0.011,-0.033 0.011,-0.051c0,-0.034 -0.013,-0.063 -0.039,-0.087c-0.027,-0.025 -0.061,-0.042 -0.103,-0.052Z" style="fill:#181a1b;fill-rule:nonzero;"/></g><g transform="matrix(83.3333,0,0,83.3333,887.561,396.425)"><path d="M0.492,-0.7l-0.303,0.7l-0.1,0l0.265,-0.614l-0.315,0l0,-0.086l0.453,0Z" style="fill:#181a1b;fill-rule:nonzero;"/></g><g transform="matrix(83.3333,0,0,83.3333,929.394,396.425)"><path d="M0.492,-0.7l-0.303,0.7l-0.1,0l0.265,-0.614l-0.315,0l0,-0.086l0.453,0Z" style="fill:#181a1b;fill-rule:nonzero;"/></g><g transform="matrix(83.3333,0,0,83.3333,970.478,396.425)"><path d="M0.351,0.014c-0.043,0 -0.083,-0.008 -0.118,-0.025c-0.035,-0.017 -0.066,-0.04 -0.091,-0.071c-0.025,-0.031 -0.044,-0.068 -0.058,-0.111c-0.014,-0.043 -0.021,-0.092 -0.021,-0.145c0,-0.055 0.008,-0.106 0.023,-0.153c0.015,-0.046 0.036,-0.086 0.063,-0.119c0.027,-0.033 0.059,-0.058 0.096,-0.077c0.037,-0.018 0.076,-0.027 0.118,-0.027c0.041,0 0.08,0.009 0.115,0.026c0.035,0.018 0.066,0.043 0.091,0.074c0.026,0.031 0.046,0.069 0.061,0.113c0.014,0.044 0.021,0.092 0.021,0.144c0,0.056 -0.007,0.107 -0.022,0.152c-0.014,0.046 -0.034,0.085 -0.061,0.117c-0.026,0.033 -0.057,0.058 -0.095,0.075c-0.037,0.018 -0.077,0.027 -0.122,0.027Zm0.01,-0.642c-0.027,0 -0.053,0.006 -0.077,0.019c-0.024,0.013 -0.045,0.032 -0.063,0.057c-0.017,0.025 -0.031,0.055 -0.042,0.091c-0.01,0.036 -0.015,0.077 -0.015,0.123c0,0.088 0.017,0.154 0.051,0.199c0.034,0.045 0.08,0.067 0.138,0.067c0.061,0 0.109,-0.024 0.145,-0.072c0.036,-0.047 0.054,-0.118 0.054,-0.213c0,-0.043 -0.005,-0.081 -0.015,-0.115c-0.009,-0.033 -0.023,-0.062 -0.04,-0.085c-0.017,-0.023 -0.037,-0.04 -0.06,-0.053c-0.023,-0.012 -0.049,-0.018 -0.076,-0.018Z" style="fill:#181a1b;fill-rule:nonzero;"/></g><g transform="matrix(83.3333,0,0,83.3333,1029.98,396.425)"><path d="M0.5,-0.19l-0.085,0l0,0.19l-0.1,0l0,-0.19l-0.301,0l0.322,-0.51l0.079,0l0,0.424l0.085,0l0,0.086Zm-0.185,-0.086l0,-0.254l-0.153,0.254l0.153,0Z" style="fill:#181a1b;fill-rule:nonzero;"/></g></g></svg>